 <svg version="1.0" xmlns="http://www.w3.org/2000/svg" width="700.000000pt" height="671.000000pt" viewBox="0 0 700.000000 671.000000" preserveAspectRatio="xMidYMid meet">
<metadata>
Created by potrace 1.12, written by Peter Selinger 2001-2015
</metadata>
<g transform="translate(0.000000,671.000000) scale(0.100000,-0.100000)" fill="#ffffff" stroke="none">
<path d="M3400 6699 c-128 -22 -175 -57 -751 -560 -35 -31 -183 -159 -329
-284 -146 -126 -314 -272 -375 -325 -60 -53 -162 -141 -225 -195 -63 -55 -182
-158 -265 -230 -156 -136 -839 -728 -1146 -993 -191 -164 -235 -217 -276 -328
-88 -241 20 -537 225 -615 58 -22 165 -30 262 -19 l45 5 5 -1435 5 -1435 27
-57 c37 -80 108 -152 187 -191 l66 -32 950 -3 c1053 -3 1010 -5 1057 61 l23
32 5 1235 5 1235 605 0 605 0 5 -1235 5 -1235 22 -31 c49 -68 -11 -65 1050
-62 l958 3 57 27 c80 37 152 107 191 187 l32 66 5 1432 c3 788 8 1433 13 1434
4 1 42 -2 85 -6 93 -8 204 12 267 50 113 65 205 248 205 404 0 115 -41 236
-108 321 -26 33 -191 183 -367 336 -322 278 -601 519 -900 779 -89 77 -222
192 -295 255 -73 63 -193 167 -265 230 -73 63 -174 151 -226 195 -51 44 -111
96 -134 116 -22 20 -166 145 -320 278 -154 134 -340 295 -414 359 -144 126
-246 194 -326 218 -65 19 -176 25 -245 13z m221 -331 c30 -19 108 -82 174
-140 291 -253 942 -817 985 -853 26 -22 92 -79 146 -126 54 -48 135 -117 179
-156 44 -38 188 -163 320 -277 374 -325 573 -497 625 -541 27 -22 174 -150
329 -283 214 -186 285 -254 301 -286 39 -82 16 -226 -41 -257 -35 -18 -152 -5
-258 30 -83 27 -98 30 -135 20 -49 -13 -101 -65 -110 -109 -3 -18 -6 -710 -6
-1538 l0 -1506 -22 -23 -21 -23 -837 0 -837 0 -7 38 c-3 20 -6 575 -6 1232 0
1167 -1 1196 -20 1227 -10 18 -34 40 -52 50 -31 17 -82 18 -835 18 -799 0
-802 0 -830 -21 -15 -12 -37 -36 -48 -55 -20 -33 -20 -54 -23 -1261 l-2 -1228
-838 0 -839 0 -22 24 -23 25 0 1488 c1 818 -1 1510 -4 1536 -7 60 -51 110
-110 126 -37 10 -52 7 -135 -20 -109 -36 -239 -50 -265 -29 -32 28 -54 88 -54
151 0 104 18 128 224 307 184 158 742 642 1106 957 108 94 292 253 410 355
118 102 268 232 334 290 67 58 189 164 271 235 83 72 278 240 433 375 156 135
302 255 325 268 64 36 147 28 218 -20z"></path>
</g>
</svg>